<?xml version="1.0" encoding="UTF-8"?>
<svg id="Capa_2" data-name="Capa 2" xmlns="http://www.w3.org/2000/svg" viewBox="0 0 422.43 112.54">
  <defs>
    <style>
      .cls-1 {
        fill: #093b53;
      }

      .cls-1, .cls-2 {
        stroke-width: 0px;
      }

      .cls-2 {
        fill: #ee7b12;
      }
    </style>
  </defs>
  <g id="Capa_2-2" data-name="Capa 2">
    <path class="cls-1" d="m180.5,84.65c-.04-7.47-3.49-9.72-9.82-6.64-2.71,1.32-5.35,3.53-7.45-.62-2.03-3.99.92-6.03,3.63-7.51,6.1-3.34,12.54-3.16,18.64-.02,5.49,2.83,7.11,8,7.03,13.86-.05,3.82-.07,7.65-.03,11.47.03,2.64-.9,5.57,2.88,7,.54.21.44,4.81-.73,6.3-3.08,3.91-8.13,2.87-12.06-1.96-6.93,4.89-14.04,5.24-18.97.93-4.14-3.62-5.57-10.98-3.12-16.08,2.68-5.57,10.84-8.4,19.99-6.74Zm.29,9.25c-1.06-.56-2.48-1.85-4.01-2.01-3.24-.35-6.46.74-5.99,4.61.21,1.71,2.76,4.15,4.55,4.45,3.67.62,5.06-2.26,5.46-7.05Z"/>
    <path class="cls-1" d="m407.23,84.14c-.04-7.47-3.49-9.72-9.82-6.64-2.71,1.32-5.35,3.53-7.45-.62-2.03-3.99.92-6.03,3.63-7.51,6.1-3.34,12.54-3.16,18.64-.02,5.49,2.83,7.11,8,7.03,13.86-.05,3.82-.07,7.65-.03,11.47.03,2.64-.9,5.57,2.88,7,.54.21.44,4.81-.73,6.3-3.08,3.91-8.13,2.87-12.06-1.96-6.93,4.89-14.04,5.24-18.97.93-4.14-3.62-5.57-10.98-3.12-16.08,2.68-5.57,10.84-8.4,19.99-6.74Zm.29,9.25c-1.06-.56-2.48-1.85-4.01-2.01-3.24-.35-6.46.74-5.99,4.61.21,1.71,2.76,4.15,4.55,4.45,3.67.62,5.06-2.26,5.46-7.05Z"/>
    <path class="cls-1" d="m255.57,84.14c-.04-7.47-3.49-9.72-9.82-6.64-2.71,1.32-5.35,3.53-7.45-.62-2.03-3.99.92-6.03,3.63-7.51,6.1-3.34,12.54-3.16,18.64-.02,5.49,2.83,7.11,8,7.03,13.86-.05,3.82-.07,7.65-.03,11.47.03,2.64-.9,5.57,2.88,7,.54.21.44,4.81-.73,6.3-3.08,3.91-8.13,2.87-12.06-1.96-6.93,4.89-14.04,5.24-18.97.93-4.14-3.62-5.57-10.98-3.12-16.08,2.68-5.57,10.84-8.4,19.99-6.74Zm.29,9.25c-1.06-.56-2.48-1.85-4.01-2.01-3.24-.35-6.46.74-5.99,4.61.21,1.71,2.76,4.15,4.55,4.45,3.67.62,5.06-2.26,5.46-7.05Z"/>
    <path class="cls-2" d="m56.24,112.54c-14.11-.83-28.27-1.07-42.24-2.87-3.62-.47-7.87-5.19-9.65-8.99C-.98,89.38-.46,77.09.94,64.99c.31-2.71,2.09-5.51,3.84-7.76,11.86-15.29,24.01-30.36,35.83-45.69C45.85,4.74,51.7.86,60.95,1.65c13.42,1.14,26.95.91,40.42,1.49,5.24.22,10.39,2.55,11.13,7.88,2.81,20.06,6.01,40.18,6.78,60.37.55,14.3-10.19,26.38-23.13,28.84-5.82,1.11-12.54.36-18.26-1.44-9.37-2.95-16.25-9.86-21.8-17.91-3.7-5.37.62-8.3,3.82-11.25,3.61-3.33,5.56.03,7.41,2.48,2.05,2.72,4.21,2.77,7.11,1.3,6.62-3.35,13.53-6.18,20-9.79,2.17-1.21,4.62-4.06,4.79-6.33.8-10.31.95-20.69.99-31.04,0-1.13-2.37-3.36-3.42-3.24-12.19,1.46-24.37,3.12-36.48,5.18-1.85.31-3.75,2.68-4.85,4.56-4.43,7.6-8.13,15.64-12.88,23.02-7.78,12.13-5.8,23.85.56,35.45,3.92,7.16,8.52,13.95,13.07,21.33Z"/>
    <path class="cls-1" d="m300,106.02c-4.68,4.53-10.24,5.74-16.07,3.34-6.32-2.6-9.18-8.13-9.43-14.68-.19-5.09-.25-10.42.99-15.29,2.84-11.11,13.59-14.64,23.5-7.65,0-5.05.16-9.72-.05-14.37-.17-3.69,1.39-5.96,4.94-6.07,3.33-.11,6.42,1.06,6.56,5.22.55,16.44,1.11,32.87,1.37,49.31.02,1.28-2.3,3.67-3.56,3.69-2.68.03-5.37-1.16-8.06-1.85-.06-.55-.11-1.1-.17-1.65Zm-13.66-17.26c-.1.02-.2.03-.3.05.39,2.26.36,4.73,1.3,6.73.82,1.75,2.59,3.92,4.21,4.17,1.61.25,4.49-1.23,5.17-2.71,1.4-3.02,2.29-6.55,2.32-9.88.06-5.62-3.28-10.06-6.69-9.43-5.18.96-5.51,5.44-6.01,9.58-.06.49,0,.99,0,1.49Z"/>
    <path class="cls-1" d="m317.27,88.38c-.02-14.01,7.32-21.7,20.31-21.3,7.3.22,13.48,4.59,15.28,11.96,1.16,4.74,1.61,9.89,1.14,14.74-1.09,11.34-8.08,17.21-18.88,16.8-10.58-.4-17.38-7.53-17.84-18.71-.05-1.16,0-2.32,0-3.49Zm25.52.02c-.07-6.48-2.93-11.07-6.88-11.07-3.98,0-6.63,4.41-6.68,11.15-.06,7.13,2.53,11.62,6.67,11.56,3.98-.06,6.97-5.11,6.9-11.63Z"/>
    <path class="cls-1" d="m172.33,29.71c-.04-7.47-3.49-9.72-9.82-6.64-2.71,1.32-5.35,3.53-7.45-.62-2.03-3.99.92-6.03,3.63-7.51,6.1-3.34,12.54-3.16,18.64-.02,5.49,2.83,7.11,8,7.03,13.86-.05,3.82-.07,7.65-.03,11.47.03,2.64-.9,5.57,2.88,7,.54.21.44,4.81-.73,6.3-3.08,3.91-8.13,2.87-12.06-1.96-6.93,4.89-14.04,5.24-18.97.93-4.14-3.62-5.57-10.98-3.12-16.08,2.68-5.57,10.84-8.4,19.99-6.74Zm.29,9.25c-1.06-.56-2.48-1.85-4.01-2.01-3.24-.35-6.46.74-5.99,4.61.21,1.71,2.76,4.15,4.55,4.45,3.67.62,5.06-2.26,5.46-7.05Z"/>
    <path class="cls-1" d="m215.33,92.34c1.68-6.73,3.53-13.41,4.97-20.19.87-4.11,2.92-5.65,7-4.83,4.06.82,5.98,3.22,4.67,7.16-3.54,10.69-7.05,21.4-11.21,31.86-1.95,4.91-7.41,5.32-10.87,1.19-1.98-2.37-3.64-5.24-4.62-8.16-2.9-8.65-5.53-17.4-7.93-26.2-.49-1.79.05-5.52.81-5.72,3.33-.88,7.2-1.25,9.11,2.76,1.42,2.98,2.43,6.18,3.45,9.33,1.34,4.1,2.51,8.26,3.76,12.39.29.14.57.28.86.42Z"/>
    <path class="cls-1" d="m142.76,65.97c3.47,1.67,7.29,2.87,10.32,5.12,3.25,2.41,3.3,6.87.81,9.24-2.96,2.82-5.02,1.42-7.42-1.22-2.64-2.91-7.84-2.11-9.07,1.74-1.3,4.03-1.98,8.82-1.06,12.86,1.5,6.61,6.28,7.96,11.6,3.79,2.61-2.05,5.18-2.5,6.84-.12,1.1,1.57,1.12,4.85.24,6.7-4.04,8.52-19.3,8.73-26.24.58-7.12-8.37-6.98-23.58.27-31.88,3.5-4.02,7.82-6.06,13.71-6.78Z"/>
    <path class="cls-1" d="m370.5,71.52c2.46-1.56,4.4-3.67,6.6-3.97,2.51-.34,6.55.1,7.54,1.68,1.25,2,.38,5.58-.24,8.32-.17.76-2.68,1.3-4.16,1.41-5.9.42-8.01,2.48-8.05,8.37-.04,5.65-.05,11.3.02,16.95.05,4.13-2.37,5.69-6,5.59-3.48-.1-6.07-1.41-5.98-5.66.13-6.48.09-12.96.04-19.44-.03-3.7,1.14-7.61-3.16-10.36-1.08-.69-1.39-4.64-.46-6,1.91-2.79,9.59-2.39,11.87.13.88.97,1.47,2.19,1.99,2.99Z"/>
    <path class="cls-1" d="m130.51,23.37c0-6.15.13-12.3-.04-18.45C130.34.28,133.19.02,136.67,0c3.47-.02,5.73.7,5.67,4.93-.15,11.63-.06,23.27-.04,34.9,0,2.1-.11,3.74,2.64,5.08,1.84.89,3.37,4.65,3.09,6.88-.19,1.47-3.8,3.46-5.94,3.55-6.65.28-10.9-4.81-11.49-13.03-.23-3.14-.08-6.31-.09-9.47-.01-3.16,0-6.32,0-9.47h.02Z"/>
  </g>
</svg>